<svg xmlns="http://www.w3.org/2000/svg" viewBox="0 0 145.47 155.68"><title>bg-cloud-lb</title><g style="isolation:isolate"><path d="M123.4,195a27.68,27.68,0,0,1-30.14-44.36,22.45,22.45,0,0,1,20.79-39.31,15.62,15.62,0,0,1,28.35-1.39l27.53-24.33.41,11.61L157.58,124a15.63,15.63,0,0,1,6.71,28.52,21.48,21.48,0,0,1-27.81,32.59A27.55,27.55,0,0,1,123.4,195Z" transform="translate(-59.17 -58.84)" style="fill:#c7c8ca;mix-blend-mode:multiply"/><path d="M115,174a27.68,27.68,0,1,1-33.76-43.78A22.44,22.44,0,0,1,110.75,97a15.64,15.64,0,1,1,24.41,19.48,19.6,19.6,0,0,1,3.61,3.2,15.64,15.64,0,1,1,11,29.29A21.48,21.48,0,0,1,115,174Z" transform="translate(-59.17 -58.84)" style="fill:#fff;stroke:#1b1d36;stroke-linecap:round;stroke-miterlimit:10;stroke-width:5.41922px"/><path d="M103.59,126.05c-2,.18-4,.36-5.82.67A42.84,42.84,0,0,0,92.41,128a38.15,38.15,0,0,0-5,1.91c-1.59.75-3.1,1.61-4.63,2.49l0,0a2.71,2.71,0,0,1-3-4.49,20.79,20.79,0,0,1,5.62-3.08,23.34,23.34,0,0,1,6.23-1.36,22,22,0,0,1,6.26.35A17.29,17.29,0,0,1,103.59,126.05Z" transform="translate(-59.17 -58.84)" style="fill:#1b1d36"/><path d="M113,172a44.34,44.34,0,0,0,4.13-4.48,34,34,0,0,0,3.36-5.16,36,36,0,0,0,2.41-5.86A51.93,51.93,0,0,0,124.5,150a19.18,19.18,0,0,1,1.34,6.95,23.27,23.27,0,0,1-1.06,7.17,24.87,24.87,0,0,1-3.17,6.65,22.57,22.57,0,0,1-5.06,5.41,2.71,2.71,0,0,1-3.52-4.12Z" transform="translate(-59.17 -58.84)" style="fill:#1b1d36"/><path d="M112.94,98.54c-.35.72-.78,1.36-1.18,2s-.83,1.36-1.24,2.1-.82,1.5-1.24,2.34-.86,1.73-1.41,2.74a7.49,7.49,0,0,1-1.5-3,10,10,0,0,1-.29-3.29,11.35,11.35,0,0,1,.72-3.26,9.2,9.2,0,0,1,1.73-2.87,2.73,2.73,0,0,1,4.46,3Z" transform="translate(-59.17 -58.84)" style="fill:#1b1d36"/><path d="M133.9,145.85a39.13,39.13,0,0,0,4.15,1.08,22.69,22.69,0,0,0,3.78.43c.61,0,1.22,0,1.81,0s1.18-.11,1.76-.2c1.17-.16,2.28-.44,3.42-.71l.1,0a2.72,2.72,0,0,1,1.74,5.12,12.35,12.35,0,0,1-4.84,1.06,13.82,13.82,0,0,1-4.87-.72,12.76,12.76,0,0,1-4.22-2.3A10.07,10.07,0,0,1,133.9,145.85Z" transform="translate(-59.17 -58.84)" style="fill:#1b1d36"/><polygon points="109.61 37.83 111.97 26.46 59.58 53.96 78.06 76.44 109.61 37.83" style="fill:#fff"/><path d="M136.33,134.54a33.68,33.68,0,0,1,2.9-5.68,55.9,55.9,0,0,1,3.59-5.11q3.81-4.94,8-9.52c2.85-3,5.72-6.06,8.66-9s6-5.84,9.26-8.53c-2,3.74-4.21,7.29-6.51,10.78s-4.71,6.88-7.12,10.28-5,6.64-7.73,9.79a55.89,55.89,0,0,1-4.3,4.54,33.68,33.68,0,0,1-5,4,1.23,1.23,0,0,1-1.81-1.48Z" transform="translate(-59.17 -58.84)" style="fill:#1b1d36"/><path d="M171.15,85.29c-7.93,6.11-16.46,11.08-24.92,16.18-4.24,2.53-8.55,4.93-13,7.14s-8.79,4.48-14.06,5a1,1,0,0,1-.9-1.72c3.46-4,7.81-6.34,12.14-8.71s8.75-4.56,13.24-6.61C152.68,92.55,161.61,88.35,171.15,85.29Z" transform="translate(-59.17 -58.84)" style="fill:#1b1d36"/><polygon points="0 23.69 104.64 9.81 104.75 10.54 0.83 29.04 0 23.69" style="fill:#1b1d36"/><polygon points="6.93 0.74 90.55 0 90.58 0.73 7.13 6.16 6.93 0.74" style="fill:#1b1d36"/><polygon points="111.06 155.01 124.71 63.8 125.44 63.9 116.44 155.68 111.06 155.01" style="fill:#1b1d36"/><polygon points="140.06 134.84 137.09 60.62 137.83 60.56 145.47 134.46 140.06 134.84" style="fill:#1b1d36"/></g></svg>