<svg xmlns="http://www.w3.org/2000/svg" viewBox="0 0 187.55 175.25"><title>bg-cloud-rt</title><g style="isolation:isolate"><path d="M203.71,115.36A33.35,33.35,0,0,0,150.28,79a27,27,0,0,0-47.36,25.05,18.82,18.82,0,0,0-1.68,34.16L71.93,171.42l14,.5,32.28-15.37a18.83,18.83,0,0,0,34.36,8.08,25.88,25.88,0,0,0,39.27-33.51A33.19,33.19,0,0,0,203.71,115.36Z" transform="translate(-39.74 -37.98)" style="fill:#c7c8ca;mix-blend-mode:multiply"/><path d="M178.44,105.19A33.34,33.34,0,1,0,125.7,64.51a27,27,0,0,0-40,35.61,18.84,18.84,0,1,0,23.47,29.41,23.58,23.58,0,0,0,3.86,4.35,18.84,18.84,0,1,0,35.28,13.21,25.88,25.88,0,0,0,30.15-41.9Z" transform="translate(-39.74 -37.98)" style="fill:#fff;stroke:#1b1d36;stroke-linecap:round;stroke-miterlimit:10;stroke-width:6.528650000000001px"/><path d="M120.71,91.49a20.84,20.84,0,0,1-2.7-6.91,26.5,26.5,0,0,1-.42-7.55,26,26,0,0,1,.57-3.8,26.69,26.69,0,0,1,1.07-3.71,25,25,0,0,1,3.7-6.77,3.27,3.27,0,0,1,5.41,3.65l0,.05c-1.06,1.84-2.1,3.66-3,5.57A46,46,0,0,0,123,78a51.62,51.62,0,0,0-1.48,6.46C121.14,86.72,120.92,89,120.71,91.49Z" transform="translate(-39.74 -37.98)" style="fill:#1b1d36"/><path d="M181.11,107.09a27.18,27.18,0,0,1-6.52,6.09,30,30,0,0,1-8,3.82,28,28,0,0,1-8.64,1.28,23.11,23.11,0,0,1-8.37-1.61,62.57,62.57,0,0,0,7.89-1.87,43.42,43.42,0,0,0,7.06-2.91,41,41,0,0,0,6.21-4,53.4,53.4,0,0,0,5.39-5l0,0a3.27,3.27,0,0,1,5,4.24Z" transform="translate(-39.74 -37.98)" style="fill:#1b1d36"/><path d="M83.75,97.45a10.91,10.91,0,0,1,3.46-2.08,13.67,13.67,0,0,1,3.93-.87,11.88,11.88,0,0,1,4,.34,9,9,0,0,1,3.57,1.8c-1.22.67-2.3,1.18-3.31,1.7s-1.93,1-2.81,1.49-1.71,1-2.53,1.49-1.6,1-2.46,1.42l-.15.07a3.29,3.29,0,0,1-3.67-5.37Z" transform="translate(-39.74 -37.98)" style="fill:#1b1d36"/><path d="M144.56,128a12.13,12.13,0,0,1,4.44,3.42,15.42,15.42,0,0,1,2.79,5.08,16.63,16.63,0,0,1,.86,5.87,14.89,14.89,0,0,1-1.28,5.84,3.27,3.27,0,0,1-6.17-2.1l0-.12c.32-1.37.66-2.72.85-4.12a24.86,24.86,0,0,0,.28-4.3,27.1,27.1,0,0,0-.51-4.56A47.19,47.19,0,0,0,144.56,128Z" transform="translate(-39.74 -37.98)" style="fill:#1b1d36"/><polygon points="45.57 132.05 31.87 134.9 65 71.78 92.09 94.04 45.57 132.05" style="fill:#fff"/><path d="M132.72,133.12a40.41,40.41,0,0,1-4.78,6,67.34,67.34,0,0,1-5.47,5.18q-5.68,4.92-11.79,9.31c-4.09,2.9-8.21,5.78-12.39,8.58s-8.47,5.45-13,7.85c3.24-3.94,6.72-7.6,10.28-11.16s7.21-7,10.87-10.43,7.5-6.64,11.47-9.7a67.33,67.33,0,0,1,6.16-4.33,40.41,40.41,0,0,1,6.85-3.49,1.48,1.48,0,0,1,1.78,2.18Z" transform="translate(-39.74 -37.98)" style="fill:#1b1d36"/><path d="M71.61,172.88c1.83-5.75,4-11.3,6.36-16.79s4.82-10.89,7.29-16.3,5.11-10.74,8-15.95,5.65-10.45,10.49-14.62a1.26,1.26,0,0,1,2.07,1.09c-.68,6.35-3.41,11.63-6.08,16.94s-5.56,10.5-8.6,15.61S85,153.06,81.82,158.11,75.3,168.11,71.61,172.88Z" transform="translate(-39.74 -37.98)" style="fill:#1b1d36"/><polygon points="34.98 1 12.7 126.19 11.82 126.06 28.53 0 34.98 1" style="fill:#1b1d36"/><polygon points="7.41 8.58 0.89 109.12 0 109.09 0.89 8.34 7.41 8.58" style="fill:#1b1d36"/><polygon points="187.55 140.27 76.98 151.12 76.87 150.24 186.74 133.79 187.55 140.27" style="fill:#1b1d36"/><polygon points="161.98 175.25 72.96 166.04 73.03 165.16 162.45 168.74 161.98 175.25" style="fill:#1b1d36"/></g></svg>