<svg xmlns="http://www.w3.org/2000/svg" viewBox="0 0 145.47 155.68"><title>bg-cloud-rb</title><g style="isolation:isolate"><path d="M140.21,191.21a27.68,27.68,0,0,0,30.14-44.36,22.45,22.45,0,0,0-20.79-39.31,15.62,15.62,0,0,0-28.35-1.39L93.68,81.82l-.41,11.61L106,120.21a15.63,15.63,0,0,0-6.71,28.52,21.48,21.48,0,0,0,27.82,32.59A27.55,27.55,0,0,0,140.21,191.21Z" transform="translate(-58.97 -55.1)" style="fill:#c7c8ca;mix-blend-mode:multiply"/><path d="M148.66,170.23a27.68,27.68,0,1,0,33.76-43.78,22.44,22.44,0,0,0-29.56-33.22,15.64,15.64,0,1,0-24.41,19.48,19.63,19.63,0,0,0-3.61,3.2,15.64,15.64,0,1,0-11,29.29,21.48,21.48,0,0,0,34.78,25Z" transform="translate(-58.97 -55.1)" style="fill:#fff;stroke:#1b1d36;stroke-linecap:round;stroke-miterlimit:10;stroke-width:5.41922px"/><path d="M160,122.31a17.29,17.29,0,0,1,5.73-2.24,22,22,0,0,1,6.26-.35,23.34,23.34,0,0,1,6.23,1.36,20.79,20.79,0,0,1,5.62,3.08,2.71,2.71,0,0,1-3,4.49l0,0c-1.52-.88-3-1.74-4.63-2.49a38.16,38.16,0,0,0-5-1.91,42.84,42.84,0,0,0-5.36-1.23C164,122.67,162.07,122.49,160,122.31Z" transform="translate(-58.97 -55.1)" style="fill:#1b1d36"/><path d="M147.08,172.45A22.56,22.56,0,0,1,142,167a24.87,24.87,0,0,1-3.17-6.65,23.27,23.27,0,0,1-1.06-7.17,19.19,19.19,0,0,1,1.34-6.95,51.94,51.94,0,0,0,1.55,6.55,36,36,0,0,0,2.41,5.86,34,34,0,0,0,3.36,5.16,44.33,44.33,0,0,0,4.13,4.47l0,0a2.71,2.71,0,0,1-3.52,4.12Z" transform="translate(-58.97 -55.1)" style="fill:#1b1d36"/><path d="M155.07,91.63a9.2,9.2,0,0,1,1.73,2.87,11.35,11.35,0,0,1,.72,3.26,10,10,0,0,1-.29,3.29,7.49,7.49,0,0,1-1.5,3c-.56-1-1-1.91-1.41-2.74s-.84-1.6-1.24-2.34-.83-1.42-1.24-2.1-.83-1.33-1.18-2l-.06-.13a2.73,2.73,0,0,1,4.46-3Z" transform="translate(-58.97 -55.1)" style="fill:#1b1d36"/><path d="M129.71,142.11a10.07,10.07,0,0,1-2.84,3.69,12.76,12.76,0,0,1-4.22,2.3,13.82,13.82,0,0,1-4.87.72,12.35,12.35,0,0,1-4.84-1.06,2.72,2.72,0,0,1,1.74-5.12l.1,0c1.14.27,2.25.55,3.42.71.58.09,1.17.14,1.76.2s1.2.07,1.81,0a22.7,22.7,0,0,0,3.78-.43A39.15,39.15,0,0,0,129.71,142.11Z" transform="translate(-58.97 -55.1)" style="fill:#1b1d36"/><polygon points="35.86 37.83 33.5 26.46 85.89 53.96 67.41 76.44 35.86 37.83" style="fill:#fff"/><path d="M125.47,132.28a33.68,33.68,0,0,1-5-4,55.89,55.89,0,0,1-4.3-4.54q-4.08-4.71-7.73-9.79c-2.41-3.4-4.79-6.81-7.12-10.28s-4.53-7-6.51-10.78c3.27,2.69,6.31,5.58,9.26,8.53s5.81,6,8.66,9,5.51,6.23,8,9.52a55.89,55.89,0,0,1,3.59,5.11,33.68,33.68,0,0,1,2.9,5.68,1.23,1.23,0,0,1-1.81,1.48Z" transform="translate(-58.97 -55.1)" style="fill:#1b1d36"/><path d="M92.46,81.55c9.54,3.05,18.47,7.25,27.47,11.33,4.49,2.06,8.91,4.24,13.24,6.61s8.68,4.69,12.14,8.71a1,1,0,0,1-.9,1.72c-5.27-.56-9.65-2.83-14.06-5s-8.72-4.61-13-7.14C108.92,92.63,100.39,87.67,92.46,81.55Z" transform="translate(-58.97 -55.1)" style="fill:#1b1d36"/><polygon points="144.64 29.04 40.72 10.54 40.84 9.81 145.47 23.69 144.64 29.04" style="fill:#1b1d36"/><polygon points="138.34 6.16 54.89 0.73 54.92 0 138.54 0.74 138.34 6.16" style="fill:#1b1d36"/><polygon points="29.04 155.68 20.03 63.9 20.76 63.8 34.41 155.01 29.04 155.68" style="fill:#1b1d36"/><polygon points="0 134.46 7.64 60.56 8.38 60.62 5.41 134.84 0 134.46" style="fill:#1b1d36"/></g></svg>