<svg xmlns="http://www.w3.org/2000/svg" viewBox="0 0 201.09 187.9"><title>bg-cloud-lt</title><g style="isolation:isolate"><path d="M43.92,115.49a35.75,35.75,0,0,1,57.3-38.94A29,29,0,0,1,152,103.41a20.18,20.18,0,0,1,1.8,36.62l31.43,35.56-15,.53-34.6-16.48a20.19,20.19,0,0,1-36.84,8.67,27.75,27.75,0,0,1-42.1-35.93A35.58,35.58,0,0,1,43.92,115.49Z" transform="translate(-18.65 -32.53)" style="fill:#c7c8ca;mix-blend-mode:multiply"/><path d="M71,104.58A35.75,35.75,0,1,1,127.57,61a29,29,0,0,1,42.92,38.18,20.2,20.2,0,1,1-25.17,31.53,25.29,25.29,0,0,1-4.13,4.66,20.2,20.2,0,1,1-37.83,14.16A27.75,27.75,0,0,1,71,104.58Z" transform="translate(-18.65 -32.53)" style="fill:#fff;stroke:#1b1d36;stroke-linecap:round;stroke-miterlimit:10;stroke-width:7px"/><path d="M132.92,89.9c-.23-2.64-.46-5.12-.87-7.52a57.78,57.78,0,0,0-1.59-6.93A49.32,49.32,0,0,0,128,69c-1-2.06-2.08-4-3.21-6l0-.06a3.51,3.51,0,0,1,5.8-3.92,26.85,26.85,0,0,1,4,7.26,28.61,28.61,0,0,1,1.15,4,30.08,30.08,0,0,1,.16,12.16A22.33,22.33,0,0,1,132.92,89.9Z" transform="translate(-18.65 -32.53)" style="fill:#1b1d36"/><path d="M73.51,102.11a57.26,57.26,0,0,0,5.78,5.33c1,.8,2.11,1.57,3.21,2.31s2.26,1.4,3.45,2a47.81,47.81,0,0,0,7.57,3.12,67.08,67.08,0,0,0,8.46,2,24.78,24.78,0,0,1-9,1.73,29.68,29.68,0,0,1-9.27-1.38,32.12,32.12,0,0,1-8.59-4.1,29.15,29.15,0,0,1-7-6.53,3.51,3.51,0,0,1,5.32-4.54Z" transform="translate(-18.65 -32.53)" style="fill:#1b1d36"/><path d="M168.45,102c-.93-.45-1.77-1-2.64-1.52s-1.76-1.07-2.71-1.6-1.94-1-3-1.6-2.23-1.11-3.55-1.82a9.67,9.67,0,0,1,3.83-1.93,12.74,12.74,0,0,1,4.25-.37,14.66,14.66,0,0,1,4.22.94,11.7,11.7,0,0,1,3.71,2.23,3.52,3.52,0,0,1-3.93,5.76Z" transform="translate(-18.65 -32.53)" style="fill:#1b1d36"/><path d="M107.34,129a50.57,50.57,0,0,0-1.4,5.35,29.85,29.85,0,0,0-.54,4.89,25.6,25.6,0,0,0,.31,4.61c.19,1.51.57,2.95.91,4.42l0,.13A3.51,3.51,0,0,1,100,150.7a16.17,16.17,0,0,1-1.37-6.26,18.09,18.09,0,0,1,.93-6.29,16.37,16.37,0,0,1,3-5.44A13,13,0,0,1,107.34,129Z" transform="translate(-18.65 -32.53)" style="fill:#1b1d36"/><polygon points="152.23 141.59 166.91 144.64 131.39 76.96 102.35 100.83 152.23 141.59" style="fill:#fff"/><path d="M122,132.19a43.32,43.32,0,0,1,7.34,3.74,72.19,72.19,0,0,1,6.61,4.64q6.38,4.92,12.3,10.4c3.93,3.68,7.82,7.39,11.66,11.18s7.54,7.74,11,12c-4.84-2.56-9.42-5.44-13.92-8.41s-8.89-6.08-13.28-9.2-8.58-6.47-12.64-10a72.19,72.19,0,0,1-5.86-5.55,43.33,43.33,0,0,1-5.13-6.45,1.59,1.59,0,0,1,1.91-2.34Z" transform="translate(-18.65 -32.53)" style="fill:#1b1d36"/><path d="M185.57,177.16c-4-5.12-7.52-10.44-10.95-15.84s-6.68-10.88-10-16.36-6.36-11-9.22-16.74-5.79-11.35-6.52-18.16a1.35,1.35,0,0,1,2.22-1.16c5.19,4.47,8.19,10.09,11.25,15.68s5.88,11.3,8.54,17.1,5.28,11.61,7.81,17.48S183.6,171,185.57,177.16Z" transform="translate(-18.65 -32.53)" style="fill:#1b1d36"/><polygon points="170.49 0 188.41 135.16 187.47 135.3 163.57 1.07 170.49 0" style="fill:#1b1d36"/><polygon points="200.13 8.95 201.09 116.97 200.14 117 193.14 9.2 200.13 8.95" style="fill:#1b1d36"/><polygon points="0.86 143.45 118.67 161.09 118.55 162.04 0 150.4 0.86 143.45" style="fill:#1b1d36"/><polygon points="26.91 180.92 122.79 177.08 122.86 178.03 27.41 187.9 26.91 180.92" style="fill:#1b1d36"/></g></svg>